<svg data-v-d3f97b9e="" xmlns="http://www.w3.org/2000/svg" viewBox="0 0 40.64460296630859 60"><!----><!----><!----><!----><g data-v-d3f97b9e="" id="9c998f53-67d3-4c37-a3cc-54ddf941d726" transform="matrix(0.6,0,0,0.6,-9.677399444580075,0)" stroke="none" fill="#EF5350"><path d="M50 0C31.294 0 16.129 15.165 16.129 33.87c0 .401.012.809.03 1.221a33.799 33.799 0 0 0 1.939 10.172C25.324 69.015 50 100 50 100s24.673-30.982 31.9-54.734a33.726 33.726 0 0 0 1.939-10.175c.02-.412.031-.819.031-1.221C83.871 15.165 68.706 0 50 0zm0 50.459c-9.161 0-16.589-7.428-16.589-16.589 0-9.16 7.428-16.588 16.589-16.588 9.162 0 16.589 7.428 16.589 16.588 0 9.161-7.427 16.589-16.589 16.589z"></path></g><!----></svg>