<svg width="676" height="242" viewBox="0 0 676 242" fill="none" xmlns="http://www.w3.org/2000/svg">
<g opacity="0.3" clip-path="url(#clip0)">
<path d="M151.742 67.0218L152.212 67.4436L151.742 67.0218C151.11 67.7253 150.005 67.7263 149.373 67.0218L148.903 67.4436L149.373 67.0218C148.911 66.5079 143.174 60.0697 137.556 51.6609C134.747 47.4565 131.976 42.7718 129.909 38.0982C127.839 33.4168 126.496 28.7911 126.496 24.6925C126.496 11.4257 137.29 0.631307 150.557 0.631307C163.824 0.631307 174.618 11.4257 174.619 24.6925C174.619 28.7911 173.275 33.4168 171.205 38.0982C169.138 42.7718 166.368 47.4565 163.559 51.6609C157.941 60.0697 152.203 66.5079 151.742 67.0218ZM137.503 24.6925C137.503 31.8915 143.358 37.7473 150.557 37.7473C157.756 37.7473 163.612 31.8917 163.612 24.6926C163.612 17.4937 157.756 11.6378 150.557 11.6378C143.358 11.6378 137.503 17.4935 137.503 24.6925Z" stroke="white" stroke-width="1.26261"/>
</g>
<g opacity="0.3" filter="url(#filter0_d)">
<path fill-rule="evenodd" clip-rule="evenodd" d="M83.4121 177.772L83.4068 177.768C79.8935 175.075 73.4171 172.168 63.8146 169.091L63.8077 169.088C54.1551 165.933 46.4627 162.823 40.7597 159.752L40.7581 159.751C25.1772 151.333 17.1615 139.834 17.1615 125.257C17.1615 117.73 19.2719 110.996 23.5016 105.1L23.5031 105.098C27.7918 99.1455 33.8806 94.543 41.7023 91.263L41.7056 91.2616C49.5863 87.9832 58.3856 86.356 68.084 86.356C77.8557 86.356 86.6111 88.1415 94.3236 91.7442C102.038 95.286 108.055 100.336 112.327 106.901C116.662 113.47 118.822 120.927 118.822 129.233V130.496H88.5534V129.233C88.5534 123.354 86.7152 118.954 83.1597 115.85L83.1554 115.847L83.1512 115.843C79.5691 112.659 74.4507 110.983 67.6217 110.983C61.0028 110.983 56.0416 112.399 52.5788 115.067L52.5736 115.071L52.5684 115.075C49.122 117.674 47.4297 121.062 47.4297 125.349C47.4297 129.216 49.3272 132.526 53.4376 135.306C57.7265 138.164 64.0933 140.894 72.6092 143.468C88.4766 148.24 100.197 154.203 107.62 161.435C115.088 168.712 118.822 177.797 118.822 188.603C118.822 200.626 114.248 210.164 105.096 217.076L105.091 217.08C95.9911 223.889 83.8281 227.226 68.7314 227.226C58.2182 227.226 48.6091 225.317 39.923 221.477L39.9161 221.474C31.232 217.573 24.5304 212.225 19.8779 205.406L19.8734 205.399C15.2813 198.575 13 190.679 13 181.76V180.497H43.3607V181.76C43.3607 188.929 45.4919 194.097 49.5667 197.507C53.6846 200.953 59.9988 202.784 68.7314 202.784C75.1746 202.784 80.0268 201.487 83.4343 199.048C86.7871 196.586 88.461 193.215 88.461 188.788C88.461 183.884 86.753 180.278 83.4174 177.776L83.4121 177.772ZM84.175 200.07C80.4759 202.721 75.328 204.047 68.7314 204.047C50.9759 204.047 42.0981 196.618 42.0981 181.76H14.2626C14.2626 182.183 14.2679 182.604 14.2784 183.022C14.4841 191.195 16.6982 198.419 20.9209 204.694C25.4215 211.291 31.9257 216.5 40.4335 220.323C48.9414 224.083 58.374 225.964 68.7314 225.964C83.6509 225.964 95.5188 222.665 104.335 216.069C113.151 209.41 117.559 200.255 117.559 188.603C117.559 178.122 113.952 169.368 106.739 162.34C99.5261 155.312 88.0282 149.424 72.2455 144.677C63.676 142.087 57.1718 139.313 52.7329 136.354C48.3557 133.395 46.1671 129.726 46.1671 125.349C46.1671 120.664 48.0474 116.903 51.8081 114.067C55.5689 111.169 60.84 109.72 67.6217 109.72C74.6499 109.72 80.106 111.447 83.99 114.899C87.874 118.29 89.8161 123.068 89.8161 129.233H117.559C117.559 128.81 117.553 128.389 117.542 127.97C117.334 120.403 115.243 113.611 111.271 107.594C107.14 101.243 101.314 96.3422 93.7926 92.8897C86.2711 89.3756 77.7016 87.6186 68.084 87.6186C58.5281 87.6186 49.897 89.2215 42.1906 92.4274C34.5458 95.6332 28.6582 100.103 24.5275 105.836C20.4586 111.508 18.4241 117.982 18.4241 125.257C18.4241 139.251 26.0688 150.379 41.3583 158.641C46.9685 161.662 54.5824 164.744 64.2 167.888C73.8176 170.971 80.4759 173.93 84.175 176.766C87.874 179.54 89.7236 183.548 89.7236 188.788C89.7236 193.597 87.874 197.358 84.175 200.07ZM167.187 225.377H136.919V88.2055H167.187V225.377ZM228.868 88.2055L262.559 183.332L296.07 88.2055H334.662V225.377H304.302V187.281L306.717 131.96L272.881 225.377H252.059L218.316 132.069L220.731 187.281V225.377H190.463V88.2055H228.868ZM216.694 123.869L252.945 224.114H271.995L308.338 123.777L305.564 187.308V224.114H333.4V89.4681H296.964L262.562 187.123L227.976 89.4681H191.725V224.114H219.468V187.308L216.694 123.869ZM386.634 225.377H356.366V88.2055H410.155C420.419 88.2055 429.49 90.0832 437.335 93.8784C445.247 97.6762 451.358 103.109 455.625 110.178C459.886 117.175 462.003 125.142 462.003 134.042C462.003 147.56 457.341 158.351 447.96 166.264L447.959 166.265C438.661 174.098 425.852 177.936 409.693 177.936H386.634V225.377ZM385.371 176.674H409.693C425.661 176.674 438.145 172.882 447.146 165.299C456.209 157.654 460.74 147.235 460.74 134.042C460.74 125.349 458.675 117.612 454.544 110.83C450.413 103.987 444.495 98.7158 436.789 95.0167C429.144 91.3176 420.266 89.4681 410.155 89.4681H357.629V224.114H385.371V176.674ZM426.051 148.083L426.055 148.079C429.608 144.921 431.457 140.369 431.457 134.227C431.457 127.895 429.602 122.894 425.98 119.1C422.38 115.328 417.37 113.323 410.791 113.203H386.634V152.939H410.155C417.311 152.939 422.539 151.255 426.047 148.086L426.051 148.083ZM385.371 154.202V111.94H410.803C417.646 112.063 423.01 114.159 426.894 118.228C430.778 122.297 432.72 127.63 432.72 134.227C432.72 140.639 430.778 145.571 426.894 149.023C423.071 152.476 417.492 154.202 410.155 154.202H385.371ZM567.796 200.565V225.377H478.62V88.2055H508.888V200.565H567.796ZM507.626 201.827V89.4681H479.883V224.114H566.533V201.827H507.626ZM617.211 175.286V224.114H589.005V175.286L544.801 89.4681H575.226L603.062 150.133L631.082 89.4681H661.414L617.211 175.286ZM603.065 147.113L576.036 88.2055H542.731L587.743 175.593V225.377H618.473V175.593L663.485 88.2055H630.274L603.065 147.113ZM165.924 224.114V89.4681H138.181V224.114H165.924Z" fill="white"/>
</g>
<defs>
<filter id="filter0_d" x="0.275403" y="75.328" width="675.934" height="166.32" filterUnits="userSpaceOnUse" color-interpolation-filters="sRGB">
<feFlood flood-opacity="0" result="BackgroundImageFix"/>
<feColorMatrix in="SourceAlpha" type="matrix" values="0 0 0 0 0 0 0 0 0 0 0 0 0 0 0 0 0 0 127 0"/>
<feOffset dy="1.69661"/>
<feGaussianBlur stdDeviation="6.3623"/>
<feColorMatrix type="matrix" values="0 0 0 0 0 0 0 0 0 0 0 0 0 0 0 0 0 0 0.1 0"/>
<feBlend mode="normal" in2="BackgroundImageFix" result="effect1_dropShadow"/>
<feBlend mode="normal" in="SourceGraphic" in2="effect1_dropShadow" result="shape"/>
</filter>
<clipPath id="clip0">
<rect width="68.1812" height="68.1812" fill="white" transform="translate(116.467)"/>
</clipPath>
</defs>
</svg>
